<?xml version="1.0" standalone="no"?>
<!DOCTYPE svg PUBLIC "-//W3C//DTD SVG 20010904//EN"
 "http://www.w3.org/TR/2001/REC-SVG-20010904/DTD/svg10.dtd">
<svg version="1.0" xmlns="http://www.w3.org/2000/svg"
 width="512.000000pt" height="512.000000pt" viewBox="0 0 512.000000 512.000000"
 preserveAspectRatio="xMidYMid meet">
<metadata>
Created by potrace 1.11, written by Peter Selinger 2001-2013
</metadata>
<g transform="translate(0.000000,512.000000) scale(0.100000,-0.100000)"
fill="#000000" stroke="none">
<path d="M0 2560 l0 -2560 2560 0 2560 0 0 2560 0 2560 -2560 0 -2560 0 0
-2560z m3169 1159 c50 -10 50 -11 44 -42 -16 -84 -15 -82 -67 -79 -57 5 -76
-9 -76 -54 0 -33 0 -33 53 -36 l52 -3 0 -60 0 -60 -52 -3 -53 -3 -2 -222 -3
-222 -80 0 -80 0 -3 222 -2 222 -38 3 -37 3 0 60 0 60 37 3 c36 3 37 4 43 50
11 85 16 99 40 122 48 45 129 60 224 39z m-2921 -86 c11 -49 35 -157 53 -241
18 -84 36 -149 40 -145 4 5 32 105 63 223 31 118 59 223 62 233 5 15 19 17
103 17 l99 0 63 -252 c45 -184 64 -246 69 -228 4 14 29 128 56 253 l48 227 83
0 c45 0 84 -3 86 -7 3 -6 -135 -598 -176 -755 -7 -28 -8 -28 -97 -28 -50 0
-90 2 -90 4 0 8 -140 529 -143 532 -2 2 -35 -116 -74 -264 l-70 -267 -91 -3
c-80 -2 -91 -1 -96 15 -15 51 -176 738 -176 754 0 17 9 19 84 19 l84 0 20 -87z
m2182 -108 l5 -190 75 87 75 88 92 0 c50 0 94 -3 97 -8 2 -4 -36 -50 -84 -102
-49 -52 -89 -101 -90 -108 0 -8 43 -87 95 -177 52 -90 95 -169 95 -175 0 -6
-32 -10 -85 -10 l-84 0 -60 108 c-85 153 -75 142 -102 107 -20 -24 -25 -44
-29 -120 l-5 -90 -80 0 -80 0 -3 380 c-1 209 0 386 3 393 3 9 26 12 82 10 l78
-3 5 -190z m1010 -200 l0 -395 -80 0 -80 0 0 395 0 395 80 0 80 0 0 -395z
m-1903 162 c97 -50 145 -126 151 -243 8 -139 -39 -228 -149 -289 -48 -26 -64
-30 -139 -30 -73 0 -93 4 -142 28 -102 50 -152 139 -152 272 0 130 71 235 186
277 73 26 176 19 245 -15z m623 17 c22 -9 40 -19 40 -23 0 -12 -42 -136 -49
-143 -4 -4 -20 -3 -37 4 -41 15 -80 4 -101 -29 -15 -22 -19 -58 -23 -203 l-5
-175 -80 0 -80 0 0 285 0 285 75 0 c71 0 74 -1 80 -25 4 -19 7 -21 12 -9 8 20
66 48 100 49 15 0 46 -7 68 -16z m1837 -17 c97 -50 145 -126 151 -243 8 -139
-39 -228 -149 -289 -48 -26 -64 -30 -139 -30 -73 0 -93 4 -142 28 -102 50
-152 139 -152 272 0 130 71 235 186 277 73 26 176 19 245 -15z m412 -139 c25
-87 48 -158 52 -158 3 0 19 48 33 108 15 59 34 131 42 160 l15 52 78 0 77 0
38 -157 c21 -87 41 -162 44 -167 3 -5 18 33 33 85 15 52 37 127 49 167 l21 72
79 0 c44 0 80 -4 80 -8 0 -4 -9 -35 -19 -68 -11 -32 -52 -159 -91 -281 l-71
-223 -77 0 -77 0 -44 167 -44 166 -38 -143 c-21 -79 -40 -154 -44 -167 -5 -22
-10 -23 -84 -23 l-78 0 -86 278 c-48 152 -87 283 -87 290 0 10 19 12 78 10
l77 -3 44 -157z m-3489 -1147 l145 -238 5 236 5 236 80 0 80 0 0 -390 0 -390
-85 -3 -85 -2 -145 237 -145 238 -3 -237 -2 -238 -80 0 -80 0 0 395 0 395 83
0 82 0 145 -239z m1690 -156 l0 -395 -75 0 -75 0 0 31 0 30 -32 -24 c-71 -52
-145 -60 -224 -23 -60 28 -108 83 -130 149 -23 71 -16 237 13 293 69 131 220
172 336 92 l27 -19 0 130 0 131 80 0 80 0 0 -395z m1270 320 l0 -76 -82 3 -83
3 -3 59 c-4 86 -5 86 88 86 l80 0 0 -75z m-2073 -158 c97 -50 145 -126 151
-243 8 -139 -39 -228 -149 -289 -48 -26 -64 -30 -139 -30 -73 0 -93 4 -142 28
-102 50 -152 139 -152 272 0 130 71 235 186 277 73 26 176 19 245 -15z m1272
17 c105 -31 168 -122 178 -260 l6 -74 -186 0 -186 0 10 -32 c12 -46 61 -88
102 -88 36 0 71 26 82 61 6 17 13 20 38 15 18 -3 53 -8 80 -12 26 -3 47 -10
47 -14 0 -42 -65 -122 -123 -151 -86 -44 -224 -33 -299 24 -78 60 -115 176
-97 305 10 73 29 114 73 160 71 76 166 99 275 66z m1278 1 c63 -19 98 -46 123
-96 34 -67 36 -65 -87 -84 -40 -6 -44 -5 -53 19 -5 15 -21 31 -35 36 -55 21
-145 5 -145 -25 0 -19 29 -30 140 -56 160 -37 220 -87 220 -181 0 -59 -17 -94
-64 -136 -90 -78 -281 -82 -379 -8 -42 32 -87 97 -87 127 0 12 13 19 48 23 26
4 62 10 80 13 29 5 33 2 43 -26 6 -18 24 -38 40 -46 51 -27 139 -15 153 21 11
28 -12 41 -109 63 -177 42 -235 89 -235 191 0 84 43 137 135 166 55 17 151 17
212 -1z m-477 -310 c0 -186 -4 -334 -11 -364 -13 -62 -58 -106 -119 -116 -45
-8 -147 2 -154 14 -3 4 -1 23 3 42 5 19 12 46 15 62 5 23 12 27 39 27 18 0 38
5 45 12 9 9 12 93 12 318 0 169 3 310 7 313 3 4 42 7 85 7 l78 0 0 -315z
m-330 -180 l0 -85 -80 0 -80 0 0 85 0 85 80 0 80 0 0 -85z"/>
<path d="M1326 3359 c-47 -41 -65 -114 -47 -193 29 -131 168 -159 226 -46 9
18 15 57 15 100 0 43 -6 82 -15 100 -39 75 -119 93 -179 39z"/>
<path d="M3786 3359 c-47 -41 -65 -114 -47 -193 29 -131 168 -159 226 -46 9
18 15 57 15 100 0 43 -6 82 -15 100 -39 75 -119 93 -179 39z"/>
<path d="M2272 2085 c-71 -60 -65 -247 10 -299 51 -36 126 -7 154 60 21 50 18
150 -6 199 -33 68 -104 86 -158 40z"/>
<path d="M1596 2079 c-47 -41 -65 -114 -47 -193 29 -131 168 -159 226 -46 9
18 15 57 15 100 0 43 -6 82 -15 100 -39 75 -119 93 -179 39z"/>
<path d="M2936 2088 c-15 -13 -29 -38 -32 -55 l-6 -33 100 0 101 0 -10 33
c-12 44 -52 77 -94 77 -21 0 -44 -9 -59 -22z"/>
</g>
</svg>
